<svg id="Layer_1" data-name="Layer 1" xmlns="http://www.w3.org/2000/svg" viewBox="0 0 100 101.8898">
  <defs>
    <style>
      .cls-1 {
        fill: #d1d1d1;
      }
    </style>
  </defs>
  <g>
    <path class="cls-1" d="M88.17,3.9058H11.83a7.933,7.933,0,0,0-7.924,7.924V88.17a7.9331,7.9331,0,0,0,7.924,7.9241H88.17a7.9329,7.9329,0,0,0,7.924-7.9241V11.83A7.9328,7.9328,0,0,0,88.17,3.9058Zm5.5477,66.03L61.314,45.1362,50.6373,56.2533,35.3186,41.6621,6.2821,69.52V11.83A5.5541,5.5541,0,0,1,11.83,6.2821H88.17A5.5539,5.5539,0,0,1,93.7179,11.83Z"/>
    <circle class="cls-1" cx="76.6975" cy="27.8954" r="9.0442"/>
  </g>
</svg>
